<svg width="234" height="30" viewBox="0 0 234 30" fill="none" xmlns="http://www.w3.org/2000/svg">
<path d="M0.349432 6.18111V1.36364H23.0469V6.18111H14.5859V29H8.81037V6.18111H0.349432ZM32.6278 1.36364V29H26.7848V1.36364H32.6278ZM61.8194 11.0391H55.9089C55.801 10.2744 55.5806 9.59517 55.2477 9.00142C54.9148 8.39867 54.4875 7.88589 53.9657 7.46307C53.444 7.04024 52.8412 6.71638 52.1575 6.49148C51.4828 6.26657 50.7496 6.15412 49.9579 6.15412C48.5275 6.15412 47.2815 6.50947 46.22 7.22017C45.1584 7.92187 44.3353 8.94744 43.7505 10.2969C43.1658 11.6373 42.8734 13.2656 42.8734 15.1818C42.8734 17.152 43.1658 18.8073 43.7505 20.1477C44.3443 21.4882 45.1719 22.5002 46.2335 23.1839C47.295 23.8677 48.523 24.2095 49.9174 24.2095C50.7001 24.2095 51.4243 24.1061 52.09 23.8991C52.7647 23.6922 53.363 23.3909 53.8848 22.995C54.4065 22.5902 54.8384 22.0999 55.1802 21.5241C55.5311 20.9484 55.774 20.2917 55.9089 19.554L61.8194 19.581C61.6665 20.8494 61.2842 22.0729 60.6724 23.2514C60.0697 24.4209 59.2555 25.469 58.2299 26.3956C57.2134 27.3132 55.9989 28.0419 54.5865 28.5817C53.1831 29.1125 51.5952 29.3778 49.823 29.3778C47.358 29.3778 45.1539 28.8201 43.2108 27.7045C41.2766 26.589 39.7472 24.9742 38.6227 22.8601C37.5072 20.746 36.9494 18.1866 36.9494 15.1818C36.9494 12.1681 37.5162 9.60417 38.6497 7.49006C39.7832 5.37595 41.3216 3.76562 43.2647 2.65909C45.2079 1.54356 47.394 0.985794 49.823 0.985794C51.4243 0.985794 52.9087 1.2107 54.2761 1.66051C55.6525 2.11032 56.8715 2.76704 57.9331 3.63068C58.9946 4.48532 59.8583 5.53338 60.524 6.77486C61.1987 8.01633 61.6305 9.43774 61.8194 11.0391ZM160.254 6.18111V1.36364H182.951V6.18111H174.49V29H168.715V6.18111H160.254ZM210.824 15.1818C210.824 18.1955 210.252 20.7595 209.11 22.8736C207.976 24.9877 206.429 26.6025 204.468 27.718C202.516 28.8246 200.321 29.3778 197.883 29.3778C195.427 29.3778 193.223 28.8201 191.27 27.7045C189.318 26.589 187.775 24.9742 186.642 22.8601C185.508 20.746 184.942 18.1866 184.942 15.1818C184.942 12.1681 185.508 9.60417 186.642 7.49006C187.775 5.37595 189.318 3.76562 191.27 2.65909C193.223 1.54356 195.427 0.985794 197.883 0.985794C200.321 0.985794 202.516 1.54356 204.468 2.65909C206.429 3.76562 207.976 5.37595 209.11 7.49006C210.252 9.60417 210.824 12.1681 210.824 15.1818ZM204.9 15.1818C204.9 13.2296 204.607 11.5833 204.023 10.2429C203.447 8.90246 202.633 7.88589 201.58 7.19318C200.528 6.50047 199.295 6.15412 197.883 6.15412C196.47 6.15412 195.238 6.50047 194.185 7.19318C193.133 7.88589 192.314 8.90246 191.729 10.2429C191.153 11.5833 190.866 13.2296 190.866 15.1818C190.866 17.134 191.153 18.7803 191.729 20.1207C192.314 21.4612 193.133 22.4777 194.185 23.1705C195.238 23.8632 196.47 24.2095 197.883 24.2095C199.295 24.2095 200.528 23.8632 201.58 23.1705C202.633 22.4777 203.447 21.4612 204.023 20.1207C204.607 18.7803 204.9 17.134 204.9 15.1818ZM215.152 29V1.36364H233.774V6.18111H220.995V12.7663H232.816V17.5838H220.995V24.1825H233.828V29H215.152Z" fill="black"/>
<path d="M73.7518 6.18111V1.36364H96.4492V6.18111H87.9883V29H82.2127V6.18111H73.7518ZM101.574 29H95.3123L104.853 1.36364H112.383L121.91 29H115.648L108.726 7.67898H108.51L101.574 29ZM101.182 18.1371H115.972V22.6982H101.182V18.1371ZM148.321 11.0391H142.411C142.303 10.2744 142.083 9.59517 141.75 9.00142C141.417 8.39867 140.989 7.88589 140.468 7.46307C139.946 7.04024 139.343 6.71638 138.659 6.49148C137.985 6.26657 137.252 6.15412 136.46 6.15412C135.029 6.15412 133.783 6.50947 132.722 7.22017C131.66 7.92187 130.837 8.94744 130.252 10.2969C129.668 11.6373 129.375 13.2656 129.375 15.1818C129.375 17.152 129.668 18.8073 130.252 20.1477C130.846 21.4882 131.674 22.5002 132.735 23.1839C133.797 23.8677 135.025 24.2095 136.419 24.2095C137.202 24.2095 137.926 24.1061 138.592 23.8991C139.267 23.6922 139.865 23.3909 140.387 22.995C140.908 22.5902 141.34 22.0999 141.682 21.5241C142.033 20.9484 142.276 20.2917 142.411 19.554L148.321 19.581C148.168 20.8494 147.786 22.0729 147.174 23.2514C146.572 24.4209 145.757 25.469 144.732 26.3956C143.715 27.3132 142.501 28.0419 141.088 28.5817C139.685 29.1125 138.097 29.3778 136.325 29.3778C133.86 29.3778 131.656 28.8201 129.713 27.7045C127.779 26.589 126.249 24.9742 125.125 22.8601C124.009 20.746 123.451 18.1866 123.451 15.1818C123.451 12.1681 124.018 9.60417 125.152 7.49006C126.285 5.37595 127.824 3.76562 129.767 2.65909C131.71 1.54356 133.896 0.985794 136.325 0.985794C137.926 0.985794 139.411 1.2107 140.778 1.66051C142.154 2.11032 143.373 2.76704 144.435 3.63068C145.497 4.48532 146.36 5.53338 147.026 6.77486C147.701 8.01633 148.132 9.43774 148.321 11.0391Z" fill="#F34954"/>
</svg>
